<?xml version="1.0" encoding="utf-8"?>
<!-- Generator: Adobe Illustrator 23.1.0, SVG Export Plug-In . SVG Version: 6.00 Build 0)  -->
<svg version="1.1" id="Слой_1" xmlns="http://www.w3.org/2000/svg" xmlns:xlink="http://www.w3.org/1999/xlink" x="0px" y="0px"
	 viewBox="0 0 150 50" style="enable-background:new 0 0 150 50;" xml:space="preserve">
<style type="text/css">
	.st0{fill:#FB5046;}
	.st1{fill:#64A06B;}
	.st2{fill:#FB9354;}
	.st3{fill:#D63334;}
	.st4{fill:#503121;}
	.st5{fill-rule:evenodd;clip-rule:evenodd;fill:#454248;}
	.st6{fill-rule:evenodd;clip-rule:evenodd;fill:#3CB669;}
	.st7{fill-rule:evenodd;clip-rule:evenodd;fill:#5B5A5E;}
	.st8{fill-rule:evenodd;clip-rule:evenodd;fill:#EBE6B4;}
	.st9{fill-rule:evenodd;clip-rule:evenodd;fill:#F9F0D2;}
	.st10{fill-rule:evenodd;clip-rule:evenodd;fill:#199752;}
	.st11{fill-rule:evenodd;clip-rule:evenodd;fill:#DD3340;}
	.st12{fill-rule:evenodd;clip-rule:evenodd;fill:#EE3F45;}
	.st13{fill-rule:evenodd;clip-rule:evenodd;fill:#F9D7A0;}
	.st14{fill-rule:evenodd;clip-rule:evenodd;fill:#DA955F;}
	.st15{fill:#FC7835;}
	.st16{fill:#D0C2CE;}
	.st17{fill:#E2CFD0;}
	.st18{fill:#EA5B42;}
	.st19{fill:#BB4636;}
	.st20{fill-rule:evenodd;clip-rule:evenodd;fill:#EBD236;}
	.st21{fill-rule:evenodd;clip-rule:evenodd;fill:#74C48D;}
	.st22{fill-rule:evenodd;clip-rule:evenodd;fill:#ECDF70;}
	.st23{fill-rule:evenodd;clip-rule:evenodd;fill:#DB2B33;}
	.st24{fill-rule:evenodd;clip-rule:evenodd;fill:#E6C233;}
	.st25{fill:#5EB130;stroke:#FFFFFF;stroke-width:3;stroke-miterlimit:10;}
	.st26{fill:#5EB130;}
</style>
<g>
	<path class="st0" d="M2.4,36.4l39.5-7.6c0.8-0.2,1.3-1.1,1.1-2.2c-0.2-1-1-1.8-1.8-1.6l-1.9,0.4L3.5,32.3l-1.8,0.4
		c-0.8,0.2-1.3,1.1-1.1,2.2C0.7,35.8,1.5,36.5,2.4,36.4z"/>
	<path class="st1" d="M4,38.7c0.9-0.2,1.6-1,1.9-2.2c0.1-0.3,0.2-0.5,0.5-0.6c0.2,0,0.5,0.1,0.6,0.3c0.6,0.9,1.6,1.4,2.5,1.2
		c0.9-0.2,1.6-1,1.9-2.1c0.1-0.3,0.2-0.5,0.5-0.5c0.2,0,0.5,0.1,0.6,0.3c0.6,0.9,1.6,1.4,2.5,1.2c0.9-0.2,1.6-1,1.9-2.1
		c0.1-0.3,0.2-0.5,0.5-0.5c0.2,0,0.5,0.1,0.6,0.3c0.6,0.9,1.6,1.4,2.5,1.2c0.9-0.2,1.6-1,1.9-2.1c0.1-0.3,0.2-0.5,0.5-0.5
		c0.2,0,0.5,0.1,0.6,0.3c0.6,0.9,1.6,1.4,2.5,1.2c0.9-0.2,1.6-1,1.9-2.1c0.1-0.3,0.2-0.5,0.5-0.5c0.2,0,0.5,0.1,0.6,0.3
		c0.6,0.9,1.6,1.4,2.5,1.2c0.9-0.2,1.6-1,1.9-2.1c0.1-0.3,0.2-0.5,0.5-0.5c0.2,0,0.5,0.1,0.6,0.3c0.6,0.9,1.6,1.4,2.5,1.2
		c0.9-0.2,1.6-1,1.9-2.1c0.1-0.3,0.2-0.5,0.5-0.5c0.2,0,0.5,0.1,0.6,0.3c0.5,0.7,1.1,1.2,1.9,1.3c0.7,0.1,1.4-0.3,1.9-0.8
		c0.2-0.3,0.4-0.6,0.5-0.9c0-0.1,0.2-1.2,0.2-1.2L1,36.7C1.5,37.8,2.8,39,4,38.7z"/>
	<path class="st2" d="M23.7,10.5l-10,1.9l-1.3,0.2c-7,1.3-11.2,9.8-9.5,18.6l0.1,0.6c0,0.2,0.2,0.3,0.4,0.3l24.4-4.7l11.4-2.2
		c0.2,0,0.4-0.2,0.3-0.4l-0.1-0.6C37.8,15.5,30.6,9.2,23.7,10.5z M6.4,19.5c0.8-0.2,1.2,1.5,0.3,1.7C5.9,21.3,5.5,19.6,6.4,19.5z
		 M8.9,28.1c-0.8,0.2-1.2-1.5-0.3-1.7C9.5,26.3,9.8,27.9,8.9,28.1z M13.4,21.7c-0.8,0.2-1.2-1.5-0.3-1.7
		C13.9,19.8,14.3,21.5,13.4,21.7z M18.1,13.7c0.5-0.1,0.8,0.4,0.8,0.9c0,0.4-0.1,0.7-0.5,0.8c-0.7,0.1-1-1-0.7-1.5
		C17.8,13.8,17.9,13.8,18.1,13.7z M20.4,25.9c-0.8,0.2-1.2-1.5-0.3-1.7C20.9,24.1,21.2,25.7,20.4,25.9z M25.7,19.2
		c-0.8,0.2-1.2-1.5-0.3-1.7C26.2,17.4,26.6,19,25.7,19.2z M31,24c-0.8,0.2-1.2-1.5-0.3-1.7C31.6,22.1,31.9,23.8,31,24z M31.8,16.6
		c-1.3,0.2-1.6-1.4-0.3-1.7C31.9,14.9,32.3,16.6,31.8,16.6z"/>
	<path class="st2" d="M32.5,36.3c0,0.3,0,0.6,0,1L4.9,42.6c-0.1,0-0.2-0.2-0.4-0.2c0.9,2.4,3.8,4.1,6.3,3.6l18.8-3.6l8-1.5
		c2.5-0.5,3.4-3.4,3.1-6.2L32.5,36.3z"/>
	<path class="st3" d="M42.3,31.9c-0.1,0-0.2,0-0.3,0c-0.9,0-1.7-0.2-2.5-0.7C38.9,32,38,32.7,37,32.9c-1,0.2-2.1-0.1-3-0.7
		c-0.6,0.9-1.5,1.5-2.5,1.7c-1,0.2-2.1-0.1-3-0.7c-0.1,0.2-0.2,0.3-0.4,0.5c-0.6,0.6-1.3,1.1-2.1,1.3c-1,0.2-2.1-0.1-3-0.7
		c-0.6,0.9-1.5,1.5-2.5,1.7c-1,0.2-2.1-0.1-3-0.7c-0.6,0.9-1.5,1.5-2.5,1.7s-2.1-0.1-3-0.7c-0.6,0.9-1.5,1.5-2.5,1.7
		c-1,0.2-2.1-0.1-3-0.7C6,38.4,5.1,39,4.1,39.2c-0.2,0-0.5,0.1-0.7,0.1c-0.1,0.1-0.2,0.1-0.3,0.1c-0.9,0.2-1.4,1.1-1.2,2
		c0.2,0.9,1,1.6,1.9,1.4L28,38.1l14.9-2.9c0.9-0.2,1.4-1.1,1.2-2C44,32.4,43.1,31.7,42.3,31.9z"/>
	<path class="st4" d="M8.6,26.4c-0.8,0.2-0.5,1.8,0.3,1.7C9.8,27.9,9.5,26.3,8.6,26.4z"/>
	<path class="st4" d="M20.1,24.2c-0.8,0.2-0.5,1.8,0.3,1.7C21.2,25.7,20.9,24.1,20.1,24.2z"/>
	<path class="st4" d="M31,24c0.8-0.2,0.5-1.8-0.3-1.7C29.9,22.4,30.2,24.1,31,24z"/>
	<path class="st4" d="M25.7,19.2c0.8-0.2,0.5-1.8-0.3-1.7C24.5,17.7,24.9,19.4,25.7,19.2z"/>
	<path class="st4" d="M13.1,20c-0.8,0.2-0.5,1.8,0.3,1.7C14.3,21.5,13.9,19.8,13.1,20z"/>
	<path class="st4" d="M18.1,13.7c-0.1,0-0.3,0.1-0.3,0.2c-0.4,0.5,0,1.6,0.7,1.5c0.4-0.1,0.5-0.4,0.5-0.8
		C18.9,14.2,18.5,13.6,18.1,13.7z"/>
	<path class="st4" d="M6.4,19.5c-0.8,0.2-0.5,1.8,0.3,1.7C7.6,21,7.2,19.3,6.4,19.5z"/>
	<path class="st4" d="M31.8,16.6c0.6-0.3,0.1-1.8-0.3-1.7C30.2,15.2,30.7,17.3,31.8,16.6z"/>
</g>
<title>April-market</title>
<g>
	<g>
		<path class="st5" d="M126.7,36.5c-5.2,3.5-12.6,1.3-15.7-3.4c-3.9-6,1.8-11.3,4.5-13.6c5.8-5,7.2-13.3,12-12.4
			C137,8.9,136.5,30,126.7,36.5z"/>
		<path class="st6" d="M129.2,7.6c0.4-0.6,0.3-0.5,0.9-1.1c1.3-1.4,2.2-1.4,1.1-2.3c-0.3-0.3-0.8-0.4-1-0.2
			c-0.9,0.7-1.6,2.2-1.9,3.4c-0.6-1-2.4-1.7-3.6-0.5c-0.3,0.3-0.4,0.5,0.2,0.5c0.9,0,2.3,0.1,2.2,0.1c-1-0.1-3.6,0.7-1.4,1.6
			c1.9,0.8,2.9-2.6,2.5-0.3c-0.4,2,4.1,2.7,1.5-0.2c-0.4-0.4,2,1.7,2.3,1.1C132.7,8.6,130.2,6.9,129.2,7.6z"/>
	</g>
	<g>
		<path class="st5" d="M121,39c-4.9,1-10.4,0.2-14.2-2.8c-4.2-3.4-4.4-8-1.5-11.8c2.6-3.5,8.3-2.2,10.7-1.1c0.5,0.2,1.1,0.3,1.7,0.4
			c-0.9,1.5-2.1,3.8-1.6,7.2c0.3,2.4,1.5,4.9,3.4,6.3C120,37.8,120.5,38.5,121,39z"/>
		<path class="st7" d="M117.5,23.5c-2.3,0-3.4,3.5-2.4,7.7c1,4.3,3.6,7.7,5.9,7.7c2.3,0,3.4-3.5,2.4-7.7
			C122.5,27,119.8,23.5,117.5,23.5z"/>
		<path class="st8" d="M118.2,23.4c-2.3,0-3.4,3.5-2.4,7.7c1,4.3,3.6,7.7,5.9,7.7c2.3,0,3.4-3.5,2.4-7.7
			C123.2,26.8,120.5,23.4,118.2,23.4z"/>
		<path class="st7" d="M119,24.9c-2.3,0.3-2.8,3.9-1.3,8c1.6,4.1,4.7,7.1,7,6.8c2.3-0.3,2.8-3.9,1.3-8
			C124.4,27.6,121.3,24.5,119,24.9z"/>
		<path class="st8" d="M119.7,24.6c-2.3,0.3-2.8,3.9-1.3,8c1.6,4.1,4.7,7.1,7,6.8c2.3-0.3,2.8-3.9,1.3-8
			C125.1,27.3,121.9,24.3,119.7,24.6z"/>
		<path class="st9" d="M120.5,26.8c-1.6,0.2-2,2.8-0.9,5.6c1.1,2.9,3.3,5,4.9,4.8c1.6-0.2,2-2.8,0.9-5.6
			C124.3,28.7,122.1,26.5,120.5,26.8z"/>
		<path class="st7" d="M120,27.7c-1.9,0.9-1.5,4.2,0.9,7.4c2.4,3.2,6,5.2,7.9,4.3c1.9-0.9,1.5-4.2-0.9-7.4
			C125.5,28.8,121.9,26.9,120,27.7z"/>
		<path class="st8" d="M120.6,27.4c-1.9,0.9-1.5,4.2,0.9,7.4c2.4,3.2,6,5.2,7.9,4.3c1.9-0.9,1.5-4.2-0.9-7.4
			C126.1,28.4,122.5,26.5,120.6,27.4z"/>
		<path class="st9" d="M122.4,29.9c-1.1,0.5-0.9,2.4,0.5,4.3c1.4,1.9,3.4,3,4.6,2.5c1.1-0.5,0.9-2.4-0.5-4.3
			C125.6,30.5,123.5,29.4,122.4,29.9z"/>
		<path class="st7" d="M123.8,31.5c-1.5,1.4-0.2,4.3,3,6.5c3.2,2.2,7,2.9,8.5,1.5c1.5-1.4,0.2-4.3-3-6.5
			C129.1,30.8,125.3,30.1,123.8,31.5z"/>
		<path class="st8" d="M124.2,31c-1.5,1.4-0.2,4.3,3,6.5c3.2,2.2,7,2.9,8.5,1.5c1.5-1.4,0.2-4.3-3-6.5
			C129.5,30.3,125.7,29.6,124.2,31z"/>
		<path class="st9" d="M127,32.9c-0.8,0.7-0.1,2.2,1.6,3.3c1.6,1.1,3.6,1.5,4.4,0.8c0.8-0.7,0.1-2.2-1.6-3.3
			C129.8,32.5,127.8,32.2,127,32.9z"/>
	</g>
</g>
<g>
	<g>
		<path class="st6" d="M60.1,1.8c1.5-1.7,7.4,2,7,7c-0.1,1.5-1.2,1.3-2.5,0.9c-1-0.3-2-0.8-2.6-1.3C60,6.6,59.1,3.3,60.1,1.8z"/>
		<path class="st10" d="M65.1,13.2c0.6-0.9,3-3.6,3.7-4.2c0.6-0.6,1.3-1.1,1.9-1.6c1.1-0.8,0.8-0.9,0.2-2.1
			c-0.5-1.1-0.6-1.6-1.5-0.5c-1,1.3-3.5,4.9-4.5,6.5c-0.3,0.4-0.6,1.1-0.9,1.4c0,0,0,0,0-0.1c0,0,0,0.1,0,0.1
			C64.3,13.3,64.6,13.4,65.1,13.2z"/>
		<path class="st11" d="M65.8,40.7c1.7-0.7,3.1-1.5,4.6-2.7c5.5-4.5,11.5-14.1,7.4-21.1c-1.8-3.1-6.4-5-10-5.1c-0.6,0-2,0.1-2.5-0.1
			c-1-0.4-3.6-2.4-4.7-3C59.3,8,58,7.5,56.7,7.3C52.1,6.6,48.2,9.1,46,13c-2.6,4.8-2.7,12-1.4,17.1c1.2,4.5,4.9,9.3,9.9,9.3
			c1.9,0.3,2.1,1.1,3.6,1.9C59.9,42,62.3,42.1,65.8,40.7z"/>
	</g>
	<g>
		<path class="st12" d="M54.3,38.3c0.9-1.5,1.4-2.9,1.8-4.7c1.5-6.6,0.4-17.1-6.7-19.9c-3.2-1.3-7.7,0-10.4,2
			c-0.4,0.3-1.4,1.2-1.9,1.3c-1,0.3-4,0.3-5.3,0.5c-1.2,0.2-2.5,0.6-3.5,1.2c-3.8,2.2-5.3,6.3-4.7,10.4c0.8,5,4.9,10.5,8.9,13.5
			c3.5,2.7,9.1,4.1,12.7,1.2c1.6-0.8,2.2-0.4,3.8-0.7C50.7,42.6,52.6,41.3,54.3,38.3z"/>
		<path class="st13" d="M52.8,37.3c0.8-1.3,1.2-2.6,1.6-4.1c1.3-5.8,0.3-15.1-5.9-17.6c-2.8-1.1-6.8,0-9.2,1.8
			c-0.4,0.3-1.3,1-1.7,1.2c-0.9,0.3-3.6,0.2-4.6,0.4c-1,0.2-2.2,0.5-3.1,1c-3.4,1.9-4.7,5.5-4.1,9.2c0.7,4.4,4.3,9.2,7.8,11.9
			c2.7,2.1,6.8,3.1,10,1.5c0.4-0.2,1.4-1.1,2.2-1.3c1.5-0.6,2,0.1,3.8-0.7C50.6,40.1,51.7,39.2,52.8,37.3z"/>
		<path class="st14" d="M42.5,27.6C42,28,42.8,34,45.8,31.3C47.5,29.7,43.4,27.1,42.5,27.6z"/>
		<path class="st14" d="M39.2,28.7c0.7,0,3.6,5.4-0.5,4.9C36.3,33.3,38.1,28.7,39.2,28.7z"/>
	</g>
</g>
<g>
	<g>
		<path class="st15" d="M95.7,14.1C95.7,14.1,95.7,14.1,95.7,14.1c-1.4,0-2.7,0.2-3.9,0.5c-8.1,2.2-12.2,10.7-12.2,10.8
			c-0.1,0.2-0.2,0.3-0.4,0.3c-0.2,0-0.3,0.1-0.5,0.1c-6.1,1.2-8.4,6.3-8,10.7c0.4,4.5,3.7,9.1,10,9.1h16.6l7.6,0
			c-0.3-0.3-2.1-1.4-2.5-1.7c-0.6-0.6-1-0.7-1.5-1.4c-1.5-2.1-2.1-4.3-2.1-6.9c0-3.4,0.9-5.4,3.3-7.8c0.4-0.4,0.6-0.8,1-1.2
			c3.1-2.3,7.3-2.1,11-1C112.2,22.7,105.2,14.1,95.7,14.1z M84.7,21.5c0.4,0,0.4,1.1,0,1.1C83.9,22.6,83.9,21.5,84.7,21.5z
			 M75.3,33.1l5.5-5.5c0.2-0.2,0.6-0.2,0.8,0c0.2,0.2,0.2,0.6,0,0.8l-5.5,5.5C76,34,75.8,34,75.7,34c-0.1,0-0.3-0.1-0.4-0.2
			C75.1,33.6,75.1,33.3,75.3,33.1z M74.9,42.7c-0.8,0-0.8-1.1,0-1.1C75.6,41.7,75.6,42.7,74.9,42.7z M76,37.4
			c-0.1,0-0.3-0.1-0.4-0.2c-0.2-0.2-0.2-0.6,0-0.8l8.6-8.6c0.2-0.2,0.6-0.2,0.8,0c0.2,0.2,0.2,0.6,0,0.8l-8.6,8.6
			C76.3,37.3,76.1,37.4,76,37.4z M79.7,41.5c-0.1,0.1-0.3,0.2-0.4,0.2s-0.3-0.1-0.4-0.2c-0.2-0.2-0.2-0.6,0-0.8l9.6-9.6
			c0.2-0.2,0.6-0.2,0.8,0c0.2,0.2,0.2,0.6,0,0.8L79.7,41.5z M81.6,43c-0.1,0-0.3-0.1-0.4-0.2c-0.2-0.2-0.2-0.6,0-0.8l8.6-8.6
			c0.2-0.2,0.6-0.2,0.8,0c0.2,0.2,0.2,0.6,0,0.8L82,42.8C81.9,43,81.7,43,81.6,43z M90.8,37.7l-5.5,5.5c-0.1,0.1-0.3,0.2-0.4,0.2
			c-0.1,0-0.3-0.1-0.4-0.2c-0.2-0.2-0.2-0.6,0-0.8l5.5-5.5c0.2-0.2,0.6-0.2,0.8,0C91.1,37.1,91.1,37.4,90.8,37.7z M101.9,17.7
			c0.8,0,0.8,1.1,0,1.1C101.2,18.7,101.2,17.7,101.9,17.7z M95.5,43c-0.8,0-0.8-1.1,0-1.1C96.3,41.9,96.3,43,95.5,43z M97.8,43.2
			c0.8,0,0.8,1.1,0,1.1C97,44.2,97,43.2,97.8,43.2z M102.3,21.3c-0.8,0-0.8-1.1,0-1.1C103.1,20.2,103.1,21.3,102.3,21.3z
			 M104.9,20.7c-0.8,0-0.8-1.1,0-1.1C105.7,19.6,105.7,20.7,104.9,20.7z"/>
		<path class="st2" d="M114.2,40.8c0.4-0.3,0.8-0.5,1.2-0.8c0,0-0.1-0.1-0.1-0.1c-0.2-0.2-0.2-0.6,0-0.8l1.8-1.6
			c0.2-0.2,0.4-0.2,0.6-0.1c2.4-4,0-7.8,0-7.8c2.4-2.3,0.7-4.6-0.2-5.5c-0.9,0.1-1.8,0.4-2.5,1.1c0,0,0,0,0,0c0,0-0.1,0.1-0.1,0.1
			c-0.1,0-0.1,0-0.2,0.1c0,0,0,0,0,0c-0.1,0-0.1,0-0.2,0c0,0,0,0,0,0c-0.1,0-0.1,0-0.2,0c0,0,0,0,0,0c0,0,0,0,0,0c0,0,0,0,0,0
			c-1.5-0.6-3-0.9-4.5-0.9c-2.9,0-5.8,1.1-8,3.3c-2.2,2.2-3.3,5-3.3,8.1c0,0.9,0.1,1.7,0.3,2.5C101.5,40.3,108.2,44.6,114.2,40.8z
			 M118.1,28.8c-0.8,0-0.8-1.1,0-1.1C118.8,27.7,118.8,28.8,118.1,28.8z M117.7,25.4c0.8,0,0.8,1.1,0,1.1
			C116.9,26.4,116.9,25.4,117.7,25.4z M117.6,34.1c0.2,0.2,0.2,0.6,0,0.8l-4.9,4.7c-0.1,0.1-0.2,0.2-0.4,0.2c-0.1,0-0.3-0.1-0.4-0.2
			c-0.2-0.2-0.2-0.6,0-0.8l4.9-4.7C117,33.9,117.4,33.9,117.6,34.1z M115.5,31.8c0.2-0.2,0.6-0.2,0.8,0c0.2,0.2,0.2,0.6,0,0.8
			l-5.9,5.7c-0.1,0.1-0.3,0.2-0.4,0.2c-0.1,0-0.3-0.1-0.4-0.2c-0.2-0.2-0.2-0.6,0-0.8L115.5,31.8z M106,29.8l1.8-1.6
			c0.2-0.2,0.6-0.2,0.8,0c0.2,0.2,0.2,0.6,0,0.8l-1.8,1.6c-0.1,0.1-0.2,0.1-0.4,0.1c-0.2,0-0.3-0.1-0.4-0.2
			C105.7,30.4,105.7,30,106,29.8z M106.6,34.2c-0.1,0-0.3-0.1-0.4-0.2c-0.2-0.2-0.2-0.6,0-0.8l4.9-4.7c0.2-0.2,0.6-0.2,0.8,0
			c0.2,0.2,0.2,0.6,0,0.8L107,34C106.9,34.1,106.8,34.2,106.6,34.2z M108.1,36.7c-0.1,0-0.3-0.1-0.4-0.2c-0.2-0.2-0.2-0.6,0-0.8
			l5.9-5.7c0.2-0.2,0.6-0.2,0.8,0c0.2,0.2,0.2,0.6,0,0.8l-5.9,5.7C108.4,36.6,108.2,36.7,108.1,36.7z"/>
		<path class="st16" d="M121.1,23.1l-1.8,1.9c0.6,0.4,1.1,0.7,1.4,1.3l1.9-1.9C122.1,23.9,121.6,23.5,121.1,23.1z"/>
		<path class="st17" d="M128.3,21.8c-0.3-0.7-1.1-1.5-2.5-1.5c-0.3,0-0.6-0.3-0.6-0.6c0-1.3-0.8-2.2-1.5-2.5
			c-0.4-0.1-0.9-0.2-1.5,0.4c-0.3,0.4-0.5,0.7-0.4,1.1c0.1,0.7,0.8,1.3,1,1.5c0.1,0.1,0.2,0.2,0.2,0.4c0,0.2,0,0.3-0.2,0.4l-1.9,1.9
			c0.5,0.4,1,0.8,1.5,1.3l1.8-1.8c0.1-0.1,0.3-0.2,0.4-0.2c0.2,0,0.3,0.1,0.4,0.2c0.2,0.3,0.8,1,1.5,1.1c0.4,0,0.7-0.1,1.1-0.4
			C128.5,22.7,128.4,22.1,128.3,21.8z"/>
		<path class="st18" d="M117.1,43.8c-0.3,0.3-0.6,1-0.9,1.2l2.1,0c1,0,1.9-0.6,2.3-1.4c0.5-0.9,0.4-1.9-0.1-2.7l-0.3-0.4
			C119.5,41.8,118.2,42.8,117.1,43.8z"/>
		<path class="st18" d="M119.7,24.6c-0.6-0.4-1.4-0.6-2.1-0.5c0.9,0.9,2.6,3.2,0.2,5.5c0,0,2.4,3.8,0,7.8c0.1,0,0.1,0.1,0.2,0.1
			c0.2,0.2,0.2,0.6,0,0.8l-1.8,1.6c-0.1,0.1-0.2,0.1-0.4,0.1c-0.1,0-0.2,0-0.3-0.1c-0.4,0.3-0.7,0.6-1.2,0.8
			c-5.9,3.8-12.6-0.5-15.2-2.5c0.5,2.1,1.6,4,3.2,5.5c4.3,4.1,11.3,4.1,15.6,0c1.3-1.2,2.2-2.7,2.8-4.2c0,0,0-0.1,0-0.1
			c1-2.6,0.9-5.6-0.3-8.3c-0.1-0.2,0-0.5,0.1-0.6c0.8-0.8,1-1.7,0.8-2.9C121.1,26.5,120.7,25.2,119.7,24.6z"/>
		<path class="st19" d="M75.7,34c0.1,0,0.3-0.1,0.4-0.2l5.5-5.5c0.2-0.2,0.2-0.6,0-0.8c-0.2-0.2-0.6-0.2-0.8,0l-5.5,5.5
			c-0.2,0.2-0.2,0.6,0,0.8C75.4,34,75.5,34,75.7,34z"/>
		<path class="st19" d="M84.9,27.9c-0.2-0.2-0.6-0.2-0.8,0l-8.6,8.6c-0.2,0.2-0.2,0.6,0,0.8c0.1,0.1,0.3,0.2,0.4,0.2
			c0.1,0,0.3-0.1,0.4-0.2l8.6-8.6C85.1,28.4,85.1,28.1,84.9,27.9z"/>
		<path class="st19" d="M89.2,31.1c-0.2-0.2-0.6-0.2-0.8,0l-9.6,9.6c-0.2,0.2-0.2,0.6,0,0.8c0.1,0.1,0.3,0.2,0.4,0.2
			c0.1,0,0.3-0.1,0.4-0.2l9.6-9.6C89.5,31.7,89.5,31.4,89.2,31.1z"/>
		<path class="st19" d="M90.6,33.5c-0.2-0.2-0.6-0.2-0.8,0l-8.6,8.6c-0.2,0.2-0.2,0.6,0,0.8c0.1,0.1,0.3,0.2,0.4,0.2
			c0.1,0,0.3-0.1,0.4-0.2l8.6-8.6C90.8,34.1,90.8,33.7,90.6,33.5z"/>
		<path class="st19" d="M90,36.9l-5.5,5.5c-0.2,0.2-0.2,0.6,0,0.8c0.1,0.1,0.3,0.2,0.4,0.2c0.1,0,0.3-0.1,0.4-0.2l5.5-5.5
			c0.2-0.2,0.2-0.6,0-0.8C90.6,36.6,90.3,36.6,90,36.9z"/>
		<path class="st19" d="M106.7,30.7l1.8-1.6c0.2-0.2,0.3-0.6,0-0.8c-0.2-0.2-0.6-0.3-0.8,0l-1.8,1.6c-0.2,0.2-0.3,0.6,0,0.8
			c0.1,0.1,0.3,0.2,0.4,0.2C106.5,30.8,106.6,30.8,106.7,30.7z"/>
		<path class="st19" d="M111.9,28.5c-0.2-0.2-0.6-0.2-0.8,0l-4.9,4.7c-0.2,0.2-0.2,0.6,0,0.8c0.1,0.1,0.3,0.2,0.4,0.2
			c0.1,0,0.3-0.1,0.4-0.2l4.9-4.7C112.2,29.1,112.2,28.7,111.9,28.5z"/>
		<path class="st19" d="M114.4,30c-0.2-0.2-0.6-0.2-0.8,0l-5.9,5.7c-0.2,0.2-0.2,0.6,0,0.8c0.1,0.1,0.3,0.2,0.4,0.2
			c0.1,0,0.3-0.1,0.4-0.2l5.9-5.7C114.6,30.6,114.7,30.2,114.4,30z"/>
		<path class="st19" d="M109.5,38.3c0.1,0.1,0.3,0.2,0.4,0.2c0.1,0,0.3-0.1,0.4-0.2l5.9-5.7c0.2-0.2,0.2-0.6,0-0.8
			c-0.2-0.2-0.6-0.2-0.8,0l-5.9,5.7C109.3,37.7,109.3,38.1,109.5,38.3z"/>
		<path class="st19" d="M111.8,39.6c0.1,0.1,0.3,0.2,0.4,0.2c0.1,0,0.3-0.1,0.4-0.2l4.9-4.7c0.2-0.2,0.2-0.6,0-0.8
			c-0.2-0.2-0.6-0.2-0.8,0l-4.9,4.7C111.6,39,111.6,39.4,111.8,39.6z"/>
		<path class="st19" d="M117.1,37.5l-1.8,1.6c-0.2,0.2-0.3,0.6,0,0.8c0,0,0.1,0.1,0.1,0.1c0.1,0.1,0.2,0.1,0.3,0.1
			c0.1,0,0.3,0,0.4-0.1l1.8-1.6c0.2-0.2,0.3-0.6,0-0.8c-0.1-0.1-0.1-0.1-0.2-0.1C117.5,37.3,117.3,37.3,117.1,37.5z"/>
		<path class="st4" d="M104.9,20.7c0.8,0,0.8-1.1,0-1.1C104.2,19.6,104.2,20.7,104.9,20.7z"/>
		<path class="st4" d="M101.9,18.7c0.8,0,0.8-1.1,0-1.1C101.2,17.7,101.2,18.7,101.9,18.7z"/>
		<path class="st4" d="M102.3,21.3c0.8,0,0.8-1.1,0-1.1C101.5,20.2,101.5,21.3,102.3,21.3z"/>
		<path class="st4" d="M84.7,22.6c0.4,0,0.4-1.1,0-1.1C83.9,21.5,83.9,22.6,84.7,22.6z"/>
		<path class="st4" d="M97.8,44.2c0.8,0,0.8-1.1,0-1.1S97,44.2,97.8,44.2z"/>
		<path class="st4" d="M95.5,41.9c-0.8,0-0.8,1.1,0,1.1C96.3,43,96.3,41.9,95.5,41.9z"/>
		<path class="st4" d="M74.9,41.7c-0.8,0-0.8,1.1,0,1.1C75.6,42.7,75.6,41.7,74.9,41.7z"/>
		<path class="st4" d="M117.7,26.4c0.8,0,0.8-1.1,0-1.1C116.9,25.4,116.9,26.4,117.7,26.4z"/>
		<path class="st4" d="M118.1,28.8c0.8,0,0.8-1.1,0-1.1C117.3,27.7,117.3,28.8,118.1,28.8z"/>
	</g>
	<path class="st19" d="M87.9,28.8c-0.2-0.2-0.6-0.2-0.8,0l-9.6,9.6c-0.2,0.2-0.2,0.6,0,0.8c0.1,0.1,0.3,0.2,0.4,0.2
		c0.1,0,0.3-0.1,0.4-0.2l9.6-9.6C88.1,29.4,88.1,29,87.9,28.8z"/>
</g>
<g>
	<path class="st20" d="M89.6,18.7l0.3-0.6c0.2-0.4,0-0.8-0.4-1l-0.7-0.3c-0.4-0.2-0.8,0-1,0.4l-0.3,0.6c-0.2,0.4,0,0.8,0.4,1
		l0.7,0.3C89,19.2,89.4,19,89.6,18.7z"/>
	<path class="st20" d="M91.2,15.3l0.1-0.7c0.1-0.4-0.2-0.8-0.6-0.9L90,13.5c-0.4-0.1-0.8,0.2-0.9,0.6l-0.1,0.7
		c-0.1,0.4,0.2,0.8,0.6,0.9l0.8,0.2C90.7,15.9,91.1,15.7,91.2,15.3z"/>
	<path class="st20" d="M91.9,11.9l0.1-0.7c0.1-0.4-0.2-0.8-0.7-0.9l-0.8-0.1c-0.4-0.1-0.8,0.2-0.9,0.7l-0.1,0.7
		c-0.1,0.4,0.2,0.8,0.7,0.9l0.8,0.1C91.5,12.7,91.9,12.4,91.9,11.9z"/>
	<path class="st20" d="M92.3,8.6l0-0.7c0-0.4-0.4-0.8-0.8-0.7l-0.8,0c-0.4,0-0.8,0.4-0.7,0.8l0,0.7c0,0.4,0.4,0.8,0.8,0.7l0.8,0
		C92,9.3,92.3,9,92.3,8.6z"/>
	<path class="st20" d="M92.1,5.3l-0.2-0.7c-0.1-0.4-0.5-0.7-0.9-0.5l-0.8,0.2c-0.4,0.1-0.7,0.5-0.6,0.9l0.2,0.7
		c0.1,0.4,0.5,0.7,0.9,0.6l0.8-0.2C91.9,6.1,92.2,5.7,92.1,5.3z"/>
	<path class="st20" d="M88,22l0.4-0.6c0.2-0.4,0.1-0.8-0.2-1.1L87.5,20c-0.4-0.2-0.8-0.1-1.1,0.2l-0.4,0.6c-0.2,0.4-0.1,0.8,0.2,1.1
		l0.7,0.4C87.3,22.5,87.8,22.4,88,22z"/>
	<path class="st20" d="M86.1,25.2l0.4-0.6c0.2-0.4,0.1-0.8-0.2-1.1l-0.7-0.4c-0.4-0.2-0.8-0.1-1.1,0.2L84.2,24
		c-0.2,0.4-0.1,0.8,0.2,1.1l0.7,0.4C85.4,25.7,85.9,25.6,86.1,25.2z"/>
	<path class="st20" d="M84.1,28.5l0.4-0.5c0.3-0.3,0.2-0.8-0.1-1.1l-0.6-0.5c-0.3-0.3-0.8-0.2-1.1,0.1l-0.4,0.5
		c-0.3,0.3-0.2,0.8,0.1,1.1l0.6,0.5C83.3,28.9,83.8,28.8,84.1,28.5z"/>
	<path class="st20" d="M81.9,31.7l0.4-0.5c0.3-0.3,0.2-0.8-0.1-1.1l-0.6-0.5c-0.3-0.3-0.8-0.2-1.1,0.1L80,30.2
		c-0.3,0.3-0.2,0.8,0.1,1.1l0.6,0.5C81.1,32.1,81.6,32,81.9,31.7z"/>
	<path class="st20" d="M61.4,41.1c-5.6-4.9,0.3-12.8,7.5-21.9C78.5,7.2,88.8,2.6,91,4c2,1.3-0.6,12.7-8.1,24
		C75.7,38.9,66.4,45.5,61.4,41.1z"/>
	<g>
		<path class="st10" d="M63.1,44.8c-0.2,0.3-0.8,0.1-1.6,2c-0.1,0.2-1.2,1.7-1.5,1.5c-1.3-1.1-2.1-1.6-2.2-1.7
			c-0.3-0.7,0.1-1.1,0.8-3.1c0.8-2.2,0.6,0,2.9,0.9C62.3,44.5,62.3,44.6,63.1,44.8z"/>
		<path class="st6" d="M59.3,45.9C53,41.2,57.7,33.1,64,23.7c2.9,4,9.5,8.8,14.4,11.6C72.2,44.5,64.5,49.7,59.3,45.9z"/>
		<path class="st10" d="M66.1,26.1c-3.2,4.4-5.9,8.8-7.5,12.5c0,0-0.5,1.9,0.4,1.1c0.9-0.8,2.3-4.5,4.9-8.6c0.9-1.5,1.9-2.9,2.8-4.3
			C66.6,26.6,66.4,26.3,66.1,26.1z"/>
		<path class="st10" d="M76,33.8c-3,4.2-6.2,7.9-9.1,10.6c0,0-1.6,1.2-1.2,0c0.4-1.1,3.7-3.4,6.8-7.3c1-1.2,1.9-2.5,2.8-3.7
			C75.6,33.6,75.8,33.7,76,33.8z"/>
		<path class="st10" d="M71.7,30.9c-3.1,4.5-6.3,8.6-9.3,11.6c0,0-1.7,1.3-1.2,0.2c0.5-1.1,3.5-4,6.8-8.2c1-1.4,2.1-2.7,3-4.1
			C71.3,30.5,71.5,30.7,71.7,30.9z"/>
	</g>
	<path class="st21" d="M65.7,22.3c-2.9,0.2-9.8,4.1-11.1,7.2c-1.9,4.7,12.3,0.6,16.4,0.1C71.7,29,68.9,22.1,65.7,22.3z"/>
	<path class="st21" d="M80.2,31.7c0.8,2.3-0.1,9.1-2.2,11c-3.1,3-4.3-9.6-5.2-13C73.1,29,79.3,29,80.2,31.7z"/>
	<path class="st21" d="M69.9,25.6c-2.2,1.7-6.3,9.6-6.1,13.5c0.2,5.9,9.9-6,13-8.8C77,29.4,72.3,23.6,69.9,25.6z"/>
	<path class="st20" d="M77,9.2l0.5-0.4c0.3-0.3,0.8-0.2,1.1,0.1l0.5,0.6c0.3,0.3,0.2,0.8-0.1,1.1L78.5,11c-0.3,0.3-0.8,0.2-1.1-0.1
		l-0.5-0.6C76.6,10,76.7,9.5,77,9.2z"/>
	<path class="st20" d="M79.8,6.8l0.6-0.3c0.4-0.2,0.8,0,1,0.3l0.4,0.7c0.2,0.4,0,0.8-0.3,1l-0.6,0.3c-0.4,0.2-0.8,0-1-0.3l-0.4-0.7
		C79.3,7.4,79.5,7,79.8,6.8z"/>
	<path class="st20" d="M82.8,5.2l0.6-0.3c0.4-0.2,0.8,0,1,0.4L84.8,6c0.2,0.4,0,0.8-0.4,1l-0.6,0.3c-0.4,0.2-0.8,0-1-0.4l-0.3-0.7
		C82.3,5.8,82.5,5.3,82.8,5.2z"/>
	<path class="st20" d="M86,3.9l0.7-0.2c0.4-0.1,0.8,0.1,0.9,0.5L87.8,5c0.1,0.4-0.1,0.8-0.5,0.9l-0.7,0.2c-0.4,0.1-0.8-0.1-0.9-0.5
		l-0.2-0.8C85.3,4.4,85.6,4,86,3.9z"/>
	<path class="st20" d="M89.2,3.2l0.7,0c0.4,0,0.8,0.3,0.8,0.7l0,0.8c0,0.4-0.3,0.8-0.7,0.8l-0.7,0c-0.4,0-0.8-0.3-0.8-0.7l0-0.8
		C88.5,3.6,88.8,3.2,89.2,3.2z"/>
	<path class="st20" d="M74.2,11.7l0.5-0.5c0.3-0.3,0.8-0.3,1.1-0.1l0.6,0.5c0.3,0.3,0.3,0.8,0.1,1.1l-0.5,0.5
		c-0.3,0.3-0.8,0.3-1.1,0.1l-0.6-0.5C74,12.5,73.9,12,74.2,11.7z"/>
	<path class="st20" d="M71.6,14.4l0.5-0.5c0.3-0.3,0.8-0.3,1.1-0.1l0.6,0.5c0.3,0.3,0.3,0.8,0.1,1.1l-0.5,0.5
		c-0.3,0.3-0.8,0.3-1.1,0.1l-0.6-0.5C71.4,15.2,71.3,14.7,71.6,14.4z"/>
	<path class="st20" d="M69,17.2l0.4-0.6c0.2-0.3,0.7-0.4,1.1-0.2l0.6,0.5c0.3,0.2,0.4,0.7,0.2,1.1l-0.4,0.6
		c-0.2,0.3-0.7,0.4-1.1,0.2l-0.6-0.5C68.9,18,68.8,17.6,69,17.2z"/>
	<path class="st20" d="M66.6,20.2l0.4-0.6c0.2-0.3,0.7-0.4,1.1-0.2l0.6,0.5c0.3,0.2,0.4,0.7,0.2,1.1l-0.4,0.6
		c-0.2,0.3-0.7,0.4-1.1,0.2l-0.6-0.5C66.4,21,66.3,20.6,66.6,20.2z"/>
	<path class="st22" d="M82.4,10.8l0.5-0.5c0.3-0.3,0.3-0.8,0-1.1l-0.6-0.6c-0.3-0.3-0.8-0.3-1.1,0l-0.5,0.5c-0.3,0.3-0.3,0.8,0,1.1
		l0.6,0.6C81.6,11.1,82.1,11.1,82.4,10.8z"/>
	<path class="st22" d="M79.3,13.6l0.5-0.5c0.3-0.3,0.3-0.8,0-1.1l-0.6-0.6c-0.3-0.3-0.8-0.3-1.1,0L77.7,12c-0.3,0.3-0.3,0.8,0,1.1
		l0.6,0.6C78.5,13.9,79,13.9,79.3,13.6z"/>
	<path class="st22" d="M76.7,16.6l0.4-0.5c0.3-0.3,0.2-0.8-0.1-1.1l-0.6-0.5c-0.3-0.3-0.8-0.2-1.1,0.1l-0.4,0.5
		c-0.3,0.3-0.2,0.8,0.1,1.1l0.6,0.5C75.9,17,76.4,16.9,76.7,16.6z"/>
	<path class="st22" d="M74,20.1l0.4-0.6c0.2-0.3,0.2-0.8-0.2-1.1L73.6,18c-0.3-0.2-0.8-0.2-1.1,0.2l-0.4,0.6
		c-0.2,0.3-0.2,0.8,0.2,1.1l0.6,0.5C73.3,20.6,73.8,20.5,74,20.1z"/>
	<path class="st22" d="M71.8,23.3l0.4-0.6c0.2-0.3,0.2-0.8-0.2-1.1l-0.6-0.5c-0.3-0.2-0.8-0.2-1.1,0.2l-0.4,0.6
		c-0.2,0.3-0.2,0.8,0.2,1.1l0.6,0.5C71,23.7,71.5,23.6,71.8,23.3z"/>
	<path class="st22" d="M85,8.6l0.4-0.3c0.3-0.2,0.3-0.5,0.2-0.8l-0.3-0.5c-0.2-0.3-0.5-0.3-0.8-0.2l-0.4,0.3
		c-0.3,0.2-0.3,0.5-0.2,0.8l0.3,0.5C84.4,8.7,84.8,8.8,85,8.6z"/>
	<path class="st22" d="M87.8,6.7l0.4-0.2c0.2-0.1,0.3-0.4,0.1-0.7L88,5.4c-0.1-0.2-0.4-0.3-0.7-0.1L87,5.5c-0.2,0.1-0.3,0.4-0.1,0.7
		l0.3,0.4C87.3,6.8,87.5,6.9,87.8,6.7z"/>
	<path class="st22" d="M89.5,5.1L89.7,5c0.1-0.1,0.2-0.2,0.1-0.3l-0.1-0.2c-0.1-0.1-0.2-0.2-0.3-0.1l-0.2,0.1
		C89,4.5,88.9,4.7,89,4.8L89.1,5C89.2,5.1,89.4,5.2,89.5,5.1z"/>
	<path class="st22" d="M86.8,13.5l0.3-0.6c0.2-0.4,0.7-0.5,1-0.3l0.7,0.4c0.4,0.2,0.5,0.7,0.3,1l-0.3,0.6c-0.2,0.4-0.7,0.5-1,0.3
		l-0.7-0.4C86.8,14.4,86.6,13.9,86.8,13.5z"/>
	<path class="st22" d="M84.9,17.2l0.3-0.6c0.2-0.4,0.7-0.5,1-0.3l0.7,0.4c0.4,0.2,0.5,0.7,0.3,1L87,18.4c-0.2,0.4-0.7,0.5-1,0.3
		l-0.7-0.4C84.9,18.1,84.7,17.6,84.9,17.2z"/>
	<path class="st22" d="M82.8,20.6l0.4-0.6c0.2-0.3,0.7-0.4,1.1-0.2l0.7,0.4c0.3,0.2,0.4,0.7,0.2,1.1l-0.4,0.6
		c-0.2,0.3-0.7,0.4-1.1,0.2L83,21.6C82.6,21.4,82.5,20.9,82.8,20.6z"/>
	<path class="st22" d="M80.1,24.1l0.4-0.5c0.3-0.3,0.7-0.4,1.1-0.1l0.6,0.5c0.3,0.3,0.4,0.7,0.1,1.1l-0.4,0.5
		c-0.3,0.3-0.7,0.4-1.1,0.1l-0.6-0.5C79.9,24.9,79.9,24.4,80.1,24.1z"/>
	<path class="st22" d="M77.7,27.1l0.4-0.5c0.3-0.3,0.7-0.4,1.1-0.1l0.6,0.5c0.3,0.3,0.4,0.7,0.1,1.1l-0.4,0.5
		c-0.3,0.3-0.7,0.4-1.1,0.1l-0.6-0.5C77.5,28,77.5,27.5,77.7,27.1z"/>
	<path class="st22" d="M88.2,10.4l0.1-0.5c0.1-0.3,0.4-0.5,0.7-0.4l0.6,0.2c0.3,0.1,0.5,0.4,0.4,0.7l-0.2,0.5
		c-0.1,0.3-0.4,0.5-0.7,0.4l-0.6-0.2C88.3,11,88.1,10.7,88.2,10.4z"/>
	<path class="st22" d="M89.3,7.2l0.1-0.4c0.1-0.3,0.3-0.4,0.6-0.3l0.5,0.1c0.3,0.1,0.4,0.3,0.3,0.6l-0.1,0.4C90.6,7.9,90.3,8,90.1,8
		l-0.5-0.1C89.4,7.7,89.2,7.5,89.3,7.2z"/>
	<path class="st22" d="M90.3,5.3l0.1-0.2c0-0.1,0.2-0.2,0.3-0.2L90.9,5c0.1,0,0.2,0.2,0.2,0.3L91,5.5c0,0.1-0.2,0.2-0.3,0.2
		l-0.2-0.1C90.3,5.6,90.2,5.5,90.3,5.3z"/>
	<path class="st22" d="M73.6,24.7l0.4-0.5c0.3-0.3,0.7-0.4,1.1-0.1l0.6,0.5c0.3,0.3,0.4,0.7,0.1,1.1l-0.4,0.5
		c-0.3,0.3-0.7,0.4-1.1,0.1l-0.6-0.5C73.4,25.5,73.4,25,73.6,24.7z"/>
	<path class="st22" d="M75.9,21.5l0.4-0.5c0.3-0.3,0.7-0.4,1.1-0.1l0.6,0.5c0.3,0.3,0.4,0.7,0.1,1.1L77.7,23
		c-0.3,0.3-0.7,0.4-1.1,0.1L76,22.6C75.7,22.3,75.7,21.9,75.9,21.5z"/>
	<path class="st22" d="M78.5,18.1l0.4-0.5c0.3-0.3,0.7-0.4,1.1-0.1l0.6,0.5c0.3,0.3,0.4,0.7,0.1,1.1l-0.4,0.5
		c-0.3,0.3-0.7,0.4-1.1,0.1l-0.6-0.5C78.3,18.9,78.2,18.5,78.5,18.1z"/>
	<path class="st22" d="M81.2,14.7l0.4-0.5c0.3-0.3,0.7-0.4,1.1-0.1l0.6,0.5c0.3,0.3,0.4,0.7,0.1,1.1L83,16.1
		c-0.3,0.3-0.7,0.4-1.1,0.1l-0.6-0.5C81,15.5,80.9,15,81.2,14.7z"/>
	<path class="st22" d="M83.9,11.2l0.4-0.5c0.2-0.3,0.7-0.4,1-0.1l0.6,0.4c0.3,0.2,0.4,0.7,0.1,1l-0.4,0.5c-0.2,0.3-0.7,0.4-1,0.1
		L84,12.2C83.7,12,83.7,11.5,83.9,11.2z"/>
	<path class="st22" d="M86.9,8l0.3-0.3c0.2-0.2,0.4-0.2,0.6-0.1l0.4,0.3c0.2,0.2,0.2,0.4,0.1,0.6L88,8.8c-0.2,0.2-0.4,0.2-0.6,0.1
		L87,8.6C86.8,8.5,86.8,8.2,86.9,8z"/>
</g>
<g>
	<g>
		<path class="st23" d="M132,21.9c-1.9,0.8-4,3.4-5.6,5.8c-4.1,6.2-2.6,13.9-1.7,11.2c0.4-1.3,0.8-4.3,2.3-6.9
			c1.4-2.3,3.4-4.2,5.9-5.6c0.8-0.5,2.3-1.5,2-2.5c-0.1-0.5-0.9-0.7-1-0.9c-0.2-0.3-0.3-0.5-0.4-0.7C133.2,21.7,132.7,21.6,132,21.9
			z"/>
		<path class="st10" d="M133.9,23.5c-0.1,0.2-0.8-0.7-0.5-0.9c0,0,1.1-0.7,1.3-0.9c0.9-0.5,1.7-0.7,2.7-0.7c0.4,0,0.5,0.3-0.1,0.3
			c-0.7-0.1-2.5,0.8-2.8,1.4C134.5,22.7,134,23.5,133.9,23.5z"/>
	</g>
	<g>
		<path class="st24" d="M139.5,25.8c-2,0.3-4.7,2.3-6.9,4.3c-5.5,5-6,12.8-4.4,10.4c0.7-1.1,1.8-4,4-6c1.9-1.8,4.3-3.2,7.1-4
			c0.9-0.2,2.6-0.9,2.6-1.9c0-0.5-0.7-0.9-0.8-1.1c-0.1-0.3-0.2-0.6-0.2-0.8C140.7,26,140.2,25.7,139.5,25.8z"/>
		<path class="st10" d="M141,27.9c-0.1,0.1-0.6-0.8-0.3-1c0,0,1.3-0.4,1.5-0.5c1-0.3,1.8-0.3,2.8,0c0.4,0.1,0.4,0.4-0.2,0.2
			c-0.7-0.3-2.6,0.1-3.1,0.6C141.7,27.3,141,27.9,141,27.9z"/>
	</g>
	<g>
		<path class="st6" d="M143.3,31.9c-2.1,0.1-5,1.7-7.4,3.3c-6.1,4.3-7.6,11.9-5.8,9.7c0.9-1,2.4-3.7,4.7-5.5c2.1-1.6,4.7-2.6,7.6-3
			c0.9-0.1,2.7-0.6,2.8-1.5c0-0.5-0.5-1-0.6-1.2c-0.1-0.3-0.1-0.6-0.1-0.8C144.5,32.2,144.1,31.9,143.3,31.9z"/>
		<path class="st10" d="M144.5,34.2c-0.2,0.1-0.5-0.9-0.1-1c0,0,1.3-0.3,1.6-0.3c1-0.1,1.8,0,2.8,0.4c0.4,0.2,0.3,0.5-0.2,0.2
			c-0.6-0.4-2.6-0.2-3.1,0.2C145.4,33.6,144.6,34.2,144.5,34.2z"/>
	</g>
</g>
<g>
	<path class="st25" d="M11.5,32.9c0-0.3,0-0.6,0.1-0.9c0.1-0.3,0.2-0.8,0.5-1.5l3.7-10c0.4-1.2,0.8-2,1.1-2.5c0.5-0.7,1.2-1,2.1-1
		c0.7,0,1.3,0.2,1.7,0.6c0.5,0.4,1,1.4,1.5,2.9l3.7,10c0.3,0.7,0.4,1.2,0.5,1.5c0.1,0.3,0.1,0.6,0.1,0.9c0,0.5-0.2,0.9-0.5,1.2
		c-0.3,0.3-0.8,0.4-1.3,0.4c-0.6,0-1-0.2-1.3-0.5c-0.3-0.3-0.5-0.7-0.7-1.4l-0.5-1.5h-6.3l-0.5,1.5c-0.2,0.6-0.4,1.1-0.7,1.4
		c-0.3,0.4-0.8,0.5-1.3,0.5c-0.6,0-1-0.1-1.3-0.4C11.7,33.8,11.5,33.4,11.5,32.9z M17,27.5h4l-1.9-6.2L17,27.5z"/>
	<path class="st25" d="M27.1,37.7V23.5c0-0.5,0.2-1,0.5-1.4s0.8-0.6,1.3-0.6c0.4,0,0.7,0.1,1,0.3c0.3,0.2,0.5,0.5,0.7,0.8
		c0.8-0.9,1.8-1.4,3.2-1.4c1.6,0,3,0.6,4.1,1.9s1.6,2.9,1.6,4.8c0,1.9-0.5,3.5-1.6,4.8c-1.1,1.3-2.4,2-4.1,2c-0.7,0-1.3-0.1-1.8-0.3
		c-0.4-0.2-0.9-0.4-1.3-0.8v4c0,0.6-0.2,1-0.5,1.4c-0.3,0.4-0.8,0.6-1.3,0.6c-0.5,0-1-0.2-1.3-0.5S27.1,38.3,27.1,37.7z M30.8,28
		c0,0.9,0.2,1.7,0.7,2.3c0.4,0.6,1.1,0.9,1.9,0.9c0.8,0,1.4-0.3,1.9-0.9c0.5-0.6,0.7-1.4,0.7-2.3c0-0.9-0.2-1.6-0.6-2.2
		c-0.5-0.6-1.1-0.9-1.9-0.9c-0.8,0-1.4,0.3-1.9,0.9C31,26.4,30.8,27.1,30.8,28z"/>
	<path class="st25" d="M40.8,32.6v-9.1c0-0.5,0.2-1,0.5-1.4s0.8-0.6,1.3-0.6c0.5,0,0.9,0.1,1.2,0.4c0.3,0.2,0.5,0.5,0.6,0.8
		c0.4-0.4,0.7-0.8,1.1-1c0.5-0.3,0.9-0.4,1.4-0.4c0.5,0,0.9,0.2,1.3,0.6s0.6,0.8,0.6,1.4c0,0.6-0.2,1-0.6,1.3
		c-0.3,0.2-0.8,0.4-1.7,0.7c-0.8,0.2-1.4,0.5-1.7,0.9s-0.4,1-0.4,1.9v4.5c0,0.6-0.2,1-0.5,1.4s-0.8,0.6-1.3,0.6
		c-0.5,0-1-0.2-1.3-0.5C41,33.6,40.8,33.1,40.8,32.6z"/>
	<path class="st25" d="M49.5,18.2c0-0.6,0.2-1.1,0.6-1.6c0.4-0.4,0.9-0.6,1.5-0.6c0.6,0,1.1,0.2,1.6,0.6c0.4,0.4,0.6,0.9,0.6,1.6
		c0,0.6-0.2,1.2-0.6,1.6s-0.9,0.6-1.6,0.6s-1.1-0.2-1.6-0.6S49.5,18.8,49.5,18.2z M50.4,34c-0.3-0.4-0.5-0.8-0.5-1.4v-9.1
		c0-0.5,0.2-1,0.5-1.4s0.8-0.6,1.3-0.6c0.5,0,1,0.2,1.3,0.5s0.5,0.8,0.5,1.4v9.1c0,0.6-0.2,1-0.5,1.4c-0.3,0.4-0.8,0.6-1.3,0.6
		C51.2,34.5,50.7,34.3,50.4,34z"/>
	<path class="st25" d="M55.1,32.6V17.9c0-0.6,0.2-1,0.5-1.4S56.4,16,57,16c0.5,0,1,0.2,1.3,0.6s0.5,0.8,0.5,1.4v14.6
		c0,0.6-0.2,1-0.5,1.4s-0.8,0.6-1.3,0.6c-0.5,0-1-0.2-1.3-0.5C55.3,33.6,55.1,33.1,55.1,32.6z"/>
	<path class="st25" d="M60.1,32.7c0-0.3,0-0.7,0.1-1.1c0,0,0.2-1.1,0.5-3.1l1.5-8.7c0.2-0.9,0.5-1.6,1-2c0.4-0.3,0.9-0.4,1.5-0.4
		c0.9,0,1.6,0.3,2,0.9c0.3,0.5,0.8,1.5,1.3,3.3l1.9,5.8l1.9-5.8c0.4-1.4,0.8-2.3,1-2.7c0.5-1,1.3-1.5,2.4-1.5c0.6,0,1.1,0.1,1.5,0.4
		c0.5,0.4,0.9,1.1,1,2l1.5,8.7c0.2,1.4,0.4,2.5,0.5,3.1c0.1,0.6,0.2,1,0.2,1.2c0,0.5-0.2,0.9-0.5,1.3c-0.3,0.4-0.8,0.6-1.4,0.6
		c-0.8,0-1.4-0.3-1.7-0.8c-0.2-0.3-0.4-0.9-0.6-1.8l-1.1-7.5L72,32.8c-0.2,0.6-0.4,1.1-0.8,1.3c-0.3,0.3-0.8,0.4-1.3,0.4
		c-0.6,0-1-0.1-1.3-0.4c-0.3-0.3-0.6-0.7-0.8-1.3l-2.6-8.3L64.1,32c-0.2,1.1-0.4,1.7-0.8,2.1c-0.4,0.3-0.8,0.5-1.4,0.5
		c-0.5,0-1-0.2-1.3-0.6C60.2,33.6,60.1,33.1,60.1,32.7z"/>
	<path class="st25" d="M80.8,28c0-1.9,0.5-3.5,1.6-4.8c1.1-1.3,2.4-1.9,4-1.9c0.7,0,1.3,0.1,1.8,0.3c0.5,0.2,0.9,0.6,1.4,1.1
		c0.2-0.3,0.4-0.6,0.6-0.8c0.3-0.3,0.7-0.4,1.1-0.4c0.5,0,1,0.2,1.3,0.5s0.5,0.8,0.5,1.4v9.1c0,0.6-0.2,1-0.5,1.4
		c-0.3,0.4-0.8,0.6-1.3,0.6c-0.4,0-0.7-0.1-1.1-0.4s-0.5-0.5-0.7-0.8c-0.8,0.9-1.8,1.4-3.2,1.4c-1.6,0-2.9-0.7-4-2
		S80.8,29.9,80.8,28z M84.5,28c0,0.9,0.2,1.7,0.7,2.3c0.4,0.6,1.1,0.9,1.9,0.9c0.8,0,1.4-0.3,1.9-0.9c0.5-0.6,0.7-1.4,0.7-2.3
		c0-0.9-0.2-1.6-0.6-2.2c-0.5-0.6-1.1-0.9-1.9-0.9c-0.8,0-1.4,0.3-1.9,0.9C84.7,26.4,84.5,27.1,84.5,28z"/>
	<path class="st25" d="M94.5,32.6v-9.1c0-0.5,0.2-1,0.5-1.4c0.3-0.4,0.8-0.6,1.3-0.6c0.5,0,0.9,0.1,1.2,0.4c0.3,0.2,0.5,0.5,0.6,0.8
		c0.4-0.4,0.7-0.8,1.1-1c0.5-0.3,0.9-0.4,1.4-0.4c0.5,0,0.9,0.2,1.3,0.6s0.6,0.8,0.6,1.4c0,0.6-0.2,1-0.6,1.3
		c-0.3,0.2-0.8,0.4-1.7,0.7c-0.8,0.2-1.4,0.5-1.7,0.9s-0.4,1-0.4,1.9v4.5c0,0.6-0.2,1-0.5,1.4c-0.3,0.4-0.8,0.6-1.3,0.6
		c-0.5,0-1-0.2-1.3-0.5S94.5,33.1,94.5,32.6z"/>
	<path class="st25" d="M104,32.6V17.9c0-0.6,0.2-1,0.5-1.4c0.3-0.4,0.8-0.6,1.3-0.6c0.5,0,1,0.2,1.3,0.6c0.3,0.4,0.5,0.8,0.5,1.4
		v7.9l3-3c0.5-0.5,0.8-0.7,0.9-0.9c0.4-0.3,0.7-0.4,1.1-0.4c0.5,0,1,0.2,1.3,0.5s0.5,0.7,0.5,1.2c0,0.4-0.2,0.8-0.5,1.1
		c-0.1,0.1-0.4,0.4-0.8,0.8l-2,2l3.1,4c0.3,0.3,0.4,0.6,0.6,0.8c0.2,0.3,0.3,0.6,0.3,0.8c0,0.4-0.1,0.8-0.4,1.2
		c-0.3,0.4-0.8,0.6-1.4,0.6c-0.4,0-0.8-0.1-1-0.2s-0.6-0.5-1-1l-3.7-4.9l0,4.2c0,0.6-0.2,1-0.5,1.4c-0.3,0.4-0.8,0.6-1.3,0.6
		c-0.5,0-1-0.2-1.3-0.5C104.2,33.6,104,33.1,104,32.6z"/>
	<path class="st25" d="M116.1,28c0-1.8,0.6-3.4,1.8-4.7c1.2-1.3,2.8-2,4.6-2c1.7,0,3.2,0.6,4.3,1.9c1.1,1.2,1.6,2.7,1.6,4.4
		c0,0.6-0.1,1-0.4,1.3c-0.3,0.2-0.7,0.4-1.4,0.4h-6.7c0,0.5,0.2,0.9,0.6,1.3c0.5,0.5,1.3,0.8,2.4,0.8c0.7,0,1.4-0.2,2.2-0.6
		s1.3-0.6,1.5-0.6c0.4,0,0.8,0.1,1.1,0.4c0.3,0.3,0.4,0.7,0.4,1.2c0,0.9-0.6,1.6-1.8,2.2c-1.2,0.6-2.5,0.8-4,0.8
		c-1.9,0-3.5-0.6-4.7-1.9C116.7,31.5,116.1,29.9,116.1,28z M120.1,26.7h4.8c0-0.5-0.2-1-0.6-1.4c-0.5-0.5-1-0.8-1.7-0.8c0,0,0,0,0,0
		c-0.7,0-1.2,0.3-1.7,0.8C120.3,25.7,120.1,26.2,120.1,26.7z"/>
	<path class="st25" d="M129.5,23.4c0-0.6,0.2-1,0.5-1.3c0.3-0.3,0.8-0.4,1.4-0.4h0.4v-2.4c0-0.6,0.2-1,0.5-1.4
		c0.3-0.4,0.8-0.6,1.3-0.6c0.5,0,1,0.2,1.3,0.5c0.3,0.4,0.5,0.8,0.5,1.4v2.4h1c0.6,0,1.1,0.1,1.4,0.4c0.3,0.3,0.5,0.7,0.5,1.3
		s-0.2,1-0.5,1.3c-0.3,0.3-0.8,0.4-1.4,0.4h-1v7.5c0,0.6-0.2,1-0.5,1.4s-0.8,0.6-1.3,0.6c-0.5,0-1-0.2-1.3-0.5s-0.5-0.8-0.5-1.4
		v-7.5h-0.4c-0.6,0-1.1-0.1-1.4-0.4C129.6,24.4,129.5,24,129.5,23.4z"/>
</g>
<g>
	<path class="st26" d="M11.5,32.9c0-0.3,0-0.6,0.1-0.9c0.1-0.3,0.2-0.8,0.5-1.5l3.7-10c0.4-1.2,0.8-2,1.1-2.5c0.5-0.7,1.2-1,2.1-1
		c0.7,0,1.3,0.2,1.7,0.6c0.5,0.4,1,1.4,1.5,2.9l3.7,10c0.3,0.7,0.4,1.2,0.5,1.5c0.1,0.3,0.1,0.6,0.1,0.9c0,0.5-0.2,0.9-0.5,1.2
		c-0.3,0.3-0.8,0.4-1.3,0.4c-0.6,0-1-0.2-1.3-0.5c-0.3-0.3-0.5-0.7-0.7-1.4l-0.5-1.5h-6.3l-0.5,1.5c-0.2,0.6-0.4,1.1-0.7,1.4
		c-0.3,0.4-0.8,0.5-1.3,0.5c-0.6,0-1-0.1-1.3-0.4C11.7,33.8,11.5,33.4,11.5,32.9z M17,27.5h4l-1.9-6.2L17,27.5z"/>
	<path class="st26" d="M27.1,37.7V23.5c0-0.5,0.2-1,0.5-1.4s0.8-0.6,1.3-0.6c0.4,0,0.7,0.1,1,0.3c0.3,0.2,0.5,0.5,0.7,0.8
		c0.8-0.9,1.8-1.4,3.2-1.4c1.6,0,3,0.6,4.1,1.9s1.6,2.9,1.6,4.8c0,1.9-0.5,3.5-1.6,4.8c-1.1,1.3-2.4,2-4.1,2c-0.7,0-1.3-0.1-1.8-0.3
		c-0.4-0.2-0.9-0.4-1.3-0.8v4c0,0.6-0.2,1-0.5,1.4c-0.3,0.4-0.8,0.6-1.3,0.6c-0.5,0-1-0.2-1.3-0.5S27.1,38.3,27.1,37.7z M30.8,28
		c0,0.9,0.2,1.7,0.7,2.3c0.4,0.6,1.1,0.9,1.9,0.9c0.8,0,1.4-0.3,1.9-0.9c0.5-0.6,0.7-1.4,0.7-2.3c0-0.9-0.2-1.6-0.6-2.2
		c-0.5-0.6-1.1-0.9-1.9-0.9c-0.8,0-1.4,0.3-1.9,0.9C31,26.4,30.8,27.1,30.8,28z"/>
	<path class="st26" d="M40.8,32.6v-9.1c0-0.5,0.2-1,0.5-1.4s0.8-0.6,1.3-0.6c0.5,0,0.9,0.1,1.2,0.4c0.3,0.2,0.5,0.5,0.6,0.8
		c0.4-0.4,0.7-0.8,1.1-1c0.5-0.3,0.9-0.4,1.4-0.4c0.5,0,0.9,0.2,1.3,0.6s0.6,0.8,0.6,1.4c0,0.6-0.2,1-0.6,1.3
		c-0.3,0.2-0.8,0.4-1.7,0.7c-0.8,0.2-1.4,0.5-1.7,0.9s-0.4,1-0.4,1.9v4.5c0,0.6-0.2,1-0.5,1.4s-0.8,0.6-1.3,0.6
		c-0.5,0-1-0.2-1.3-0.5C41,33.6,40.8,33.1,40.8,32.6z"/>
	<path class="st26" d="M49.5,18.2c0-0.6,0.2-1.1,0.6-1.6c0.4-0.4,0.9-0.6,1.5-0.6c0.6,0,1.1,0.2,1.6,0.6c0.4,0.4,0.6,0.9,0.6,1.6
		c0,0.6-0.2,1.2-0.6,1.6s-0.9,0.6-1.6,0.6s-1.1-0.2-1.6-0.6S49.5,18.8,49.5,18.2z M50.4,34c-0.3-0.4-0.5-0.8-0.5-1.4v-9.1
		c0-0.5,0.2-1,0.5-1.4s0.8-0.6,1.3-0.6c0.5,0,1,0.2,1.3,0.5s0.5,0.8,0.5,1.4v9.1c0,0.6-0.2,1-0.5,1.4c-0.3,0.4-0.8,0.6-1.3,0.6
		C51.2,34.5,50.7,34.3,50.4,34z"/>
	<path class="st26" d="M55.1,32.6V17.9c0-0.6,0.2-1,0.5-1.4S56.4,16,57,16c0.5,0,1,0.2,1.3,0.6s0.5,0.8,0.5,1.4v14.6
		c0,0.6-0.2,1-0.5,1.4s-0.8,0.6-1.3,0.6c-0.5,0-1-0.2-1.3-0.5C55.3,33.6,55.1,33.1,55.1,32.6z"/>
	<path class="st26" d="M60.1,32.7c0-0.3,0-0.7,0.1-1.1c0,0,0.2-1.1,0.5-3.1l1.5-8.7c0.2-0.9,0.5-1.6,1-2c0.4-0.3,0.9-0.4,1.5-0.4
		c0.9,0,1.6,0.3,2,0.9c0.3,0.5,0.8,1.5,1.3,3.3l1.9,5.8l1.9-5.8c0.4-1.4,0.8-2.3,1-2.7c0.5-1,1.3-1.5,2.4-1.5c0.6,0,1.1,0.1,1.5,0.4
		c0.5,0.4,0.9,1.1,1,2l1.5,8.7c0.2,1.4,0.4,2.5,0.5,3.1c0.1,0.6,0.2,1,0.2,1.2c0,0.5-0.2,0.9-0.5,1.3c-0.3,0.4-0.8,0.6-1.4,0.6
		c-0.8,0-1.4-0.3-1.7-0.8c-0.2-0.3-0.4-0.9-0.6-1.8l-1.1-7.5L72,32.8c-0.2,0.6-0.4,1.1-0.8,1.3c-0.3,0.3-0.8,0.4-1.3,0.4
		c-0.6,0-1-0.1-1.3-0.4c-0.3-0.3-0.6-0.7-0.8-1.3l-2.6-8.3L64.1,32c-0.2,1.1-0.4,1.7-0.8,2.1c-0.4,0.3-0.8,0.5-1.4,0.5
		c-0.5,0-1-0.2-1.3-0.6C60.2,33.6,60.1,33.1,60.1,32.7z"/>
	<path class="st26" d="M80.8,28c0-1.9,0.5-3.5,1.6-4.8c1.1-1.3,2.4-1.9,4-1.9c0.7,0,1.3,0.1,1.8,0.3c0.5,0.2,0.9,0.6,1.4,1.1
		c0.2-0.3,0.4-0.6,0.6-0.8c0.3-0.3,0.7-0.4,1.1-0.4c0.5,0,1,0.2,1.3,0.5s0.5,0.8,0.5,1.4v9.1c0,0.6-0.2,1-0.5,1.4
		c-0.3,0.4-0.8,0.6-1.3,0.6c-0.4,0-0.7-0.1-1.1-0.4s-0.5-0.5-0.7-0.8c-0.8,0.9-1.8,1.4-3.2,1.4c-1.6,0-2.9-0.7-4-2
		S80.8,29.9,80.8,28z M84.5,28c0,0.9,0.2,1.7,0.7,2.3c0.4,0.6,1.1,0.9,1.9,0.9c0.8,0,1.4-0.3,1.9-0.9c0.5-0.6,0.7-1.4,0.7-2.3
		c0-0.9-0.2-1.6-0.6-2.2c-0.5-0.6-1.1-0.9-1.9-0.9c-0.8,0-1.4,0.3-1.9,0.9C84.7,26.4,84.5,27.1,84.5,28z"/>
	<path class="st26" d="M94.5,32.6v-9.1c0-0.5,0.2-1,0.5-1.4c0.3-0.4,0.8-0.6,1.3-0.6c0.5,0,0.9,0.1,1.2,0.4c0.3,0.2,0.5,0.5,0.6,0.8
		c0.4-0.4,0.7-0.8,1.1-1c0.5-0.3,0.9-0.4,1.4-0.4c0.5,0,0.9,0.2,1.3,0.6s0.6,0.8,0.6,1.4c0,0.6-0.2,1-0.6,1.3
		c-0.3,0.2-0.8,0.4-1.7,0.7c-0.8,0.2-1.4,0.5-1.7,0.9s-0.4,1-0.4,1.9v4.5c0,0.6-0.2,1-0.5,1.4c-0.3,0.4-0.8,0.6-1.3,0.6
		c-0.5,0-1-0.2-1.3-0.5S94.5,33.1,94.5,32.6z"/>
	<path class="st26" d="M104,32.6V17.9c0-0.6,0.2-1,0.5-1.4c0.3-0.4,0.8-0.6,1.3-0.6c0.5,0,1,0.2,1.3,0.6c0.3,0.4,0.5,0.8,0.5,1.4
		v7.9l3-3c0.5-0.5,0.8-0.7,0.9-0.9c0.4-0.3,0.7-0.4,1.1-0.4c0.5,0,1,0.2,1.3,0.5s0.5,0.7,0.5,1.2c0,0.4-0.2,0.8-0.5,1.1
		c-0.1,0.1-0.4,0.4-0.8,0.8l-2,2l3.1,4c0.3,0.3,0.4,0.6,0.6,0.8c0.2,0.3,0.3,0.6,0.3,0.8c0,0.4-0.1,0.8-0.4,1.2
		c-0.3,0.4-0.8,0.6-1.4,0.6c-0.4,0-0.8-0.1-1-0.2s-0.6-0.5-1-1l-3.7-4.9l0,4.2c0,0.6-0.2,1-0.5,1.4c-0.3,0.4-0.8,0.6-1.3,0.6
		c-0.5,0-1-0.2-1.3-0.5C104.2,33.6,104,33.1,104,32.6z"/>
	<path class="st26" d="M116.1,28c0-1.8,0.6-3.4,1.8-4.7c1.2-1.3,2.8-2,4.6-2c1.7,0,3.2,0.6,4.3,1.9c1.1,1.2,1.6,2.7,1.6,4.4
		c0,0.6-0.1,1-0.4,1.3c-0.3,0.2-0.7,0.4-1.4,0.4h-6.7c0,0.5,0.2,0.9,0.6,1.3c0.5,0.5,1.3,0.8,2.4,0.8c0.7,0,1.4-0.2,2.2-0.6
		s1.3-0.6,1.5-0.6c0.4,0,0.8,0.1,1.1,0.4c0.3,0.3,0.4,0.7,0.4,1.2c0,0.9-0.6,1.6-1.8,2.2c-1.2,0.6-2.5,0.8-4,0.8
		c-1.9,0-3.5-0.6-4.7-1.9C116.7,31.5,116.1,29.9,116.1,28z M120.1,26.7h4.8c0-0.5-0.2-1-0.6-1.4c-0.5-0.5-1-0.8-1.7-0.8c0,0,0,0,0,0
		c-0.7,0-1.2,0.3-1.7,0.8C120.3,25.7,120.1,26.2,120.1,26.7z"/>
	<path class="st26" d="M129.5,23.4c0-0.6,0.2-1,0.5-1.3c0.3-0.3,0.8-0.4,1.4-0.4h0.4v-2.4c0-0.6,0.2-1,0.5-1.4
		c0.3-0.4,0.8-0.6,1.3-0.6c0.5,0,1,0.2,1.3,0.5c0.3,0.4,0.5,0.8,0.5,1.4v2.4h1c0.6,0,1.1,0.1,1.4,0.4c0.3,0.3,0.5,0.7,0.5,1.3
		s-0.2,1-0.5,1.3c-0.3,0.3-0.8,0.4-1.4,0.4h-1v7.5c0,0.6-0.2,1-0.5,1.4s-0.8,0.6-1.3,0.6c-0.5,0-1-0.2-1.3-0.5s-0.5-0.8-0.5-1.4
		v-7.5h-0.4c-0.6,0-1.1-0.1-1.4-0.4C129.6,24.4,129.5,24,129.5,23.4z"/>
</g>
</svg>
